PathFileType	4	(X/Y/Z)	TVC_58_BWA_03_walk_RCNL2025.trc
DataRate	CameraRate	NumFrames	NumMarkers	Units	OrigDataRate	OrigDataStartFrame	OrigNumFrames
100	100	6	27	mm	100	168	335
Frame#	Time	R_Shoulder			L_Shoulder			C7			J_Notch			R_Elbow			L_Elbow			R_Wrist			L_Wrist			R_Asis			L_Asis			R_Psis			L_Psis			Sacral			Thoracic			Sternum			R_Thigh_Lateral			R_Knee_Lateral			R_Shank_Lateral			R_Ankle_Lateral			R_Heel			R_Toe			L_Thigh_Lateral			L_Knee_Lateral			L_Shank_Lateral			L_Ankle_Lateral			L_Heel			L_Toe		
		X1	Y1	Z1	X2	Y2	Z2	X3	Y3	Z3	X4	Y4	Z4	X5	Y5	Z5	X6	Y6	Z6	X7	Y7	Z7	X8	Y8	Z8	X9	Y9	Z9	X10	Y10	Z10	X11	Y11	Z11	X12	Y12	Z12	X13	Y13	Z13	X14	Y14	Z14	X15	Y15	Z15	X16	Y16	Z16	X17	Y17	Z17	X18	Y18	Z18	X19	Y19	Z19	X20	Y20	Z20	X21	Y21	Z21	X22	Y22	Z22	X23	Y23	Z23	X24	Y24	Z24	X25	Y25	Z25	X26	Y26	Z26	X27	Y27	Z27
168	1.67000000	-494.396545	1337.121216	288.735199	-490.439148	1357.977661	-67.901344	-553.238770	1418.953613	104.625206	-410.062622	1317.046143	110.716560	-521.090088	1018.092651	354.794006	-561.669250	1040.178955	-136.929489	-418.668716	790.622284	390.466888	-462.758057	813.269135	-195.983444	-398.808533	907.550659	243.615906	-408.495605	902.783508	-67.810646	-629.707336	952.013733	156.090607	-634.543335	937.851379	44.877415	-632.125336	944.932556	100.484011	-615.441223	1116.350708	98.516708	-317.085602	1074.999390	89.738594	-438.222321	694.347351	326.588623	-432.236969	462.197144	234.314240	-473.569061	258.126617	267.379852	-533.101746	68.680763	169.513962	-588.353271	64.175034	118.516838	-409.738281	46.006882	133.296219	-427.926971	661.845947	-135.110199	-308.198761	480.236145	-43.603523	-424.545959	331.440979	-101.263222	-605.723816	185.221680	-24.394444	-646.872864	205.050568	26.740267	-507.256012	90.112000	-1.507109
169	1.68000000	-485.721558	1337.441040	289.447815	-482.807770	1358.059937	-67.100883	-545.003052	1419.265381	105.553261	-402.069244	1316.943604	111.337624	-508.625366	1018.485474	356.645416	-554.989929	1040.432007	-136.014694	-402.703094	792.451874	391.491821	-456.447128	813.405365	-195.337524	-392.275116	907.307068	244.649689	-401.026855	903.838867	-67.374352	-622.781799	952.270447	156.246277	-627.248779	938.405457	45.014065	-625.015289	945.337952	100.630171	-608.042297	1116.860107	99.550613	-309.864532	1074.953125	90.331779	-432.665405	693.791748	326.557770	-429.582825	461.703583	234.399078	-472.136200	257.870789	267.341431	-532.924377	68.806908	169.504105	-588.245178	64.490784	118.534065	-409.719574	45.992222	133.270294	-416.868530	663.674500	-134.353027	-293.476440	484.476166	-42.253372	-403.238647	331.624969	-99.288742	-578.079041	176.724731	-21.649715	-620.103027	195.058731	29.346212	-475.209351	86.737862	2.006109
170	1.69000000	-477.143158	1337.662964	290.122772	-475.142273	1358.053711	-66.328873	-536.797485	1419.453247	106.424637	-394.103180	1316.739136	111.959236	-496.191895	1018.821411	358.367462	-548.310486	1040.612915	-135.114120	-386.859833	794.246063	392.361206	-450.195648	813.442017	-194.715866	-385.782104	907.039551	245.692841	-393.424927	904.824646	-66.839706	-615.815796	952.466370	156.342255	-619.927002	938.866943	45.091297	-617.871399	945.666656	100.716776	-600.653198	1117.246826	100.460106	-302.647705	1074.889893	91.032387	-427.399902	693.180542	326.605164	-426.961761	461.215179	234.513748	-470.674652	257.637451	267.320831	-532.746460	68.941422	169.500717	-588.134644	64.830742	118.552933	-409.692078	45.963898	133.242355	-405.930878	665.445618	-133.722931	-279.610657	488.373413	-40.993073	-382.161377	331.053497	-97.221725	-549.549194	167.579559	-18.915806	-592.349854	184.224579	32.004158	-442.381744	83.121330	5.262345
171	1.70000000	-468.667358	1337.780762	290.761932	-467.433563	1357.954102	-65.585320	-528.622253	1419.512573	107.237267	-386.161682	1316.432007	112.584366	-483.810822	1019.093140	359.954803	-541.616455	1040.715942	-134.228455	-371.154846	795.997589	393.069733	-444.002777	813.370697	-194.120171	-379.311127	906.744507	246.737442	-385.680298	905.714539	-66.217712	-608.801697	952.602356	156.374619	-612.570435	939.219666	45.117188	-610.686066	945.911011	100.745903	-593.263733	1117.503296	101.240051	-295.422424	1074.801025	91.843842	-422.396942	692.534851	326.734161	-424.388733	460.734222	234.669388	-469.238464	257.427643	267.336334	-532.570068	69.081749	169.501862	-588.026550	65.196335	118.569267	-409.655273	45.922997	133.213806	-395.128845	667.107300	-133.219803	-266.635559	491.840729	-39.825596	-361.413757	329.783081	-95.125809	-520.119629	157.997101	-16.233568	-563.589661	172.753510	34.670406	-408.804443	79.482925	8.222768
172	1.71000000	-460.299500	1337.787354	291.366852	-459.673248	1357.755737	-64.870750	-520.477356	1419.439697	107.989029	-378.241913	1316.021484	113.214981	-471.503418	1019.291992	361.403870	-534.892517	1040.733643	-133.360199	-355.602814	797.698944	393.613281	-437.866379	813.182343	-193.552475	-372.844574	906.417542	247.776611	-377.785828	906.481445	-65.521729	-601.734375	952.674927	156.335388	-605.169250	939.447144	45.094540	-603.451813	946.061035	100.714964	-585.863892	1117.622314	101.886635	-288.176270	1074.675659	92.766121	-417.608795	691.874939	326.943085	-421.875458	460.262543	234.875137	-467.884735	257.242981	267.405304	-532.397278	69.225891	169.503922	-587.925232	65.588852	118.576591	-409.609528	45.871437	133.185989	-384.491180	668.604187	-132.841248	-254.568192	494.803802	-38.751980	-341.073761	327.917389	-93.080559	-489.799927	148.203369	-13.648889	-533.831055	160.876480	37.287472	-374.529572	76.053436	10.879309
173	1.72000000	-452.044067	1337.675659	291.938721	-451.853607	1357.452393	-64.186279	-512.362793	1419.231689	108.677803	-370.341064	1315.506470	113.851982	-459.290436	1019.408325	362.712738	-528.122864	1040.657959	-132.513504	-340.217300	799.342346	393.988953	-431.783051	812.867340	-193.015038	-366.365662	906.054016	248.804932	-369.736877	907.098267	-64.766342	-594.610535	952.676453	156.213455	-597.711548	939.533447	45.021217	-596.161041	946.104950	100.617336	-578.444092	1117.597900	102.397530	-280.897522	1074.501953	93.795853	-412.972351	691.218628	327.225891	-419.429260	459.801300	235.137299	-466.665802	257.085114	267.541779	-532.230408	69.372734	169.501572	-587.833862	66.009636	118.566254	-409.555908	45.811726	133.159866	-374.060883	669.878784	-132.582016	-243.405945	497.205048	-37.771362	-321.196198	325.595917	-91.171021	-458.634186	138.432220	-11.209297	-503.123413	148.842789	39.789635	-339.640961	73.062981	13.247993
